<svg xmlns="http://www.w3.org/2000/svg" viewBox="0 0 434 90" version="1.1"><path stroke="#000" stroke-linecap="round" stroke-linejoin="mitter" d="M32 16h8m0 0h8m0 0h8m0 0h8m0 0h8m0 0h8m0 0h8m16 0h8m0 0h8m0 0h8m0 0h8m0 0h8m0 0h8m0 0h8m32 0h8m0 0h8m0 0h8m0 0h8m0 0h8m0 0h8m0 0h8m0 0h8m16 0h8m0 0h8m0 0h8m0 0h8m0 0h8m0 0h8m0 0h8m0 0h8m16 0h8m0 0h8m0 0h8m0 0h8m0 0h8m0 0h8m0 0h8M16 32l8-16m0 16 8-16m56 0 8 16m0 0 8-16m56 0 8 16m0-16 8 16m8 0 8-16m64 0 8 16m0 0 8-16m64 0 8 16m0 0 8-16m56 0 8 16m0-16 8 16M8 48l8-16m0 16 8-16m64 16 8-16m64 16 8-16m0 16 8-16m-8 16h16m0 0 8-16m56 16 8-16m0 16 8-16m64 16h8m0 0 8-16m64 16 8-16m0 16 8-16M0 64l8-16m64 16h8m0 0 8-16m72 16 8-16m0 16 8-16m72 16 8-16m0 16 8-16m56 16 8-16m0 16 8-16m72 16 8-16M0 64l8 16m0 0h8m0 0h8m0 0h8m0 0h8m0 0 8-16m-8 16h16m0 0h8m0 0h8m0 0 8-16m0 0 8 16m0 0h8m0 0h8m0 0h8m0 0 8-16m-8 16h16m0 0h8m0 0h8m0 0h8m0 0 8-16m8 0 8 16m0-16 8 16m0 0h8m0 0h8m0 0h8m0 0h8m0 0h8m0 0h8m0 0h8m0 0 8-16m8 0 8 16m0 0h8m0 0h8m0 0h8m0 0h8m0 0h8m0 0 8-16m0 16 8-16m8 0 8 16m0 0h8m0 0h8m0 0h8m0 0h8m0 0h8m0 0h8m0 0h8m0 0h8m0 0 8-16"/></svg>